<svg xmlns="http://www.w3.org/2000/svg" viewBox="0 0 64 64">
  <rect width="64" height="64" rx="14" fill="#0B1F3A"/>
  <path fill="#1E63FF" d="M16 43h21c4.2 0 6.7-1.9 6.7-5.1 0-3.5-2.9-4.6-7.8-5.6l-7.4-1.5C20.8 29.2 17 25.7 17 19.6 17 12.4 22.8 8 32 8c7.2 0 12.6 2.5 16.1 7.2l-6.2 5.1C39.4 17 36 15.4 31.5 15.4c-4 0-6.3 1.6-6.3 4.2 0 2.9 2.3 4.1 7.4 5.1l7.4 1.6c8.1 1.7 12 5.4 12 11.6C52 46.1 45.7 51 36.2 51H16v-8Z"/>
  <path fill="#DCEBFF" d="M16 48h21.8c8.8 0 14.6-4 16.5-11.1C54.1 47.6 47.4 56 35.8 56H16v-8Z" opacity=".35"/>
</svg>
